<svg width="21" height="20" viewBox="0 0 21 20" fill="none" xmlns="http://www.w3.org/2000/svg">
<path d="M6.12329 0C2.74667 0 0 2.61829 0 5.83496V14.1683C0 17.3841 2.74921 20 6.12671 20H14.8767C18.2533 20 21 17.3817 21 14.165V5.83171C21 2.61587 18.2508 0 14.8733 0H6.12329ZM16.625 3.33333C17.108 3.33333 17.5 3.70667 17.5 4.16667C17.5 4.62667 17.108 5 16.625 5C16.142 5 15.75 4.62667 15.75 4.16667C15.75 3.70667 16.142 3.33333 16.625 3.33333ZM10.5 5C13.3954 5 15.75 7.2425 15.75 10C15.75 12.7575 13.3954 15 10.5 15C7.60462 15 5.25 12.7575 5.25 10C5.25 7.2425 7.60462 5 10.5 5ZM10.5 6.66667C9.57174 6.66667 8.6815 7.01786 8.02513 7.64298C7.36875 8.2681 7 9.11594 7 10C7 10.8841 7.36875 11.7319 8.02513 12.357C8.6815 12.9821 9.57174 13.3333 10.5 13.3333C11.4283 13.3333 12.3185 12.9821 12.9749 12.357C13.6313 11.7319 14 10.8841 14 10C14 9.11594 13.6313 8.2681 12.9749 7.64298C12.3185 7.01786 11.4283 6.66667 10.5 6.66667Z" fill="white"/>
</svg>
