<svg width="21" height="21" viewBox="0 0 21 21" fill="none" xmlns="http://www.w3.org/2000/svg">
<path d="M10.5 0C16.2992 0 21 4.7008 21 10.5C21 16.2992 16.2992 21 10.5 21C4.7008 21 0 16.2992 0 10.5C0 4.7008 4.7008 0 10.5 0ZM14.122 14.7799C14.3152 14.1873 15.22 8.28176 15.3318 7.11809C15.3656 6.76565 15.2542 6.53146 15.036 6.42691C14.7721 6.3 14.3813 6.36346 13.928 6.52689C13.3062 6.75104 5.35728 10.1261 4.89802 10.3215C4.4625 10.5064 4.05072 10.7082 4.05072 11.0003C4.05072 11.2058 4.17261 11.3213 4.50861 11.4413C4.8583 11.566 5.73893 11.833 6.25891 11.9764C6.75972 12.1147 7.32991 11.9947 7.64948 11.7961C7.98822 11.5856 11.8974 8.96974 12.1782 8.74057C12.4585 8.51139 12.6822 8.80494 12.453 9.03457C12.2238 9.26374 9.54039 11.8682 9.18659 12.2288C8.757 12.6667 9.06196 13.1204 9.35002 13.3021C9.67917 13.5094 12.0462 15.0972 12.4028 15.3519C12.7593 15.6067 13.1209 15.7222 13.4519 15.7222C13.7828 15.7222 13.9572 15.2862 14.122 14.7799Z" fill="white"/>
</svg>
